<?xml version="1.0" standalone="no"?>
<!DOCTYPE svg PUBLIC "-//W3C//DTD SVG 20010904//EN"
 "http://www.w3.org/TR/2001/REC-SVG-20010904/DTD/svg10.dtd">
<svg version="1.0" xmlns="http://www.w3.org/2000/svg"
 width="4267.000000pt" height="4267.000000pt" viewBox="0 0 4267.000000 4267.000000"
 preserveAspectRatio="xMidYMid meet">
<metadata>
Created by potrace 1.11, written by Peter Selinger 2001-2013
</metadata>
<g transform="translate(0.000000,4267.000000) scale(0.100000,-0.100000)"
fill="#000000" stroke="none">
<path d="M20997 36444 c-1 -1 -92 -5 -202 -9 -110 -3 -227 -8 -260 -10 -33 -2
-103 -6 -155 -10 -52 -3 -117 -8 -145 -10 -27 -2 -90 -6 -140 -10 -49 -3 -105
-8 -125 -10 -19 -2 -64 -6 -100 -10 -36 -3 -81 -8 -100 -10 -19 -2 -64 -7
-100 -10 -36 -3 -76 -8 -90 -10 -30 -5 -83 -12 -165 -21 -33 -3 -68 -8 -79
-10 -10 -2 -44 -6 -75 -9 -31 -4 -63 -8 -71 -10 -8 -2 -37 -7 -65 -11 -27 -3
-59 -8 -70 -10 -10 -2 -37 -6 -60 -9 -22 -3 -51 -8 -65 -10 -14 -3 -38 -7 -55
-9 -70 -11 -101 -17 -125 -21 -14 -3 -38 -7 -55 -10 -16 -2 -79 -14 -140 -25
-60 -12 -121 -23 -135 -26 -14 -2 -36 -7 -50 -10 -14 -3 -36 -8 -50 -10 -68
-12 -279 -58 -390 -85 -69 -17 -134 -32 -145 -33 -44 -7 -628 -162 -715 -191
-25 -8 -99 -31 -165 -51 -428 -129 -1067 -359 -1395 -500 -42 -19 -26 -11
-295 -130 -619 -272 -1321 -642 -1833 -966 -15 -10 -40 -25 -56 -34 -34 -19
-459 -296 -466 -304 -3 -3 -25 -19 -50 -35 -109 -73 -496 -349 -510 -365 -3
-3 -48 -37 -100 -75 -52 -39 -104 -77 -115 -87 -11 -9 -92 -74 -180 -144 -136
-108 -240 -194 -365 -300 -68 -58 -291 -254 -335 -294 -27 -26 -84 -78 -125
-116 -296 -272 -711 -692 -945 -954 -32 -36 -77 -85 -99 -110 -87 -94 -361
-418 -499 -590 -76 -94 -371 -478 -405 -527 -7 -10 -58 -81 -112 -157 -542
-754 -1067 -1667 -1457 -2531 -25 -55 -54 -119 -64 -142 -10 -23 -19 -44 -19
-47 0 -2 -15 -37 -34 -78 -47 -103 -256 -629 -306 -773 -23 -66 -45 -127 -49
-135 -10 -19 -210 -625 -215 -653 -3 -12 -10 -38 -16 -57 -11 -35 -97 -332
-104 -360 -2 -8 -21 -78 -41 -155 -20 -77 -38 -147 -40 -155 -2 -8 -17 -73
-35 -144 -48 -203 -134 -599 -146 -676 -3 -19 -14 -80 -24 -135 -22 -114 -22
-115 -50 -290 -11 -71 -23 -141 -25 -155 -2 -14 -7 -45 -10 -70 -3 -25 -8 -52
-10 -60 -2 -8 -6 -40 -10 -71 -3 -31 -7 -66 -10 -77 -2 -11 -6 -47 -10 -79 -3
-33 -8 -70 -10 -84 -2 -13 -6 -49 -9 -80 -3 -31 -8 -72 -10 -90 -3 -19 -8 -61
-11 -94 -3 -33 -8 -82 -10 -110 -9 -80 -14 -139 -20 -222 -3 -43 -7 -96 -10
-118 -8 -84 -20 -302 -31 -570 -13 -337 -7 -1070 11 -1355 2 -30 6 -98 9 -150
3 -52 8 -120 10 -150 3 -30 8 -91 11 -135 18 -214 27 -307 31 -330 2 -11 6
-49 9 -86 3 -36 7 -75 10 -87 2 -11 6 -49 10 -84 3 -35 8 -74 10 -88 3 -14 7
-44 10 -67 10 -87 16 -130 31 -228 8 -55 16 -111 19 -125 37 -232 47 -292 55
-330 5 -25 16 -83 24 -130 21 -114 24 -131 30 -159 3 -14 15 -68 25 -120 20
-94 54 -251 71 -321 4 -19 15 -66 24 -105 9 -38 21 -88 26 -110 6 -22 13 -51
16 -65 5 -23 38 -150 69 -265 8 -27 23 -84 34 -125 116 -433 324 -1048 514
-1520 38 -96 78 -197 89 -225 11 -27 33 -78 49 -113 16 -34 29 -64 29 -67 0
-5 64 -152 109 -250 98 -213 138 -296 248 -515 131 -262 188 -371 315 -600 45
-80 92 -165 106 -190 13 -25 31 -52 38 -61 8 -8 14 -18 14 -22 0 -27 460 -748
643 -1008 202 -286 381 -526 571 -764 108 -135 312 -382 325 -395 4 -3 46 -52
96 -110 49 -58 94 -110 100 -116 5 -6 44 -48 85 -94 198 -219 403 -432 639
-664 219 -215 220 -215 352 -336 168 -154 218 -199 289 -260 35 -30 68 -60 74
-65 9 -9 168 -143 321 -270 36 -30 94 -77 196 -157 46 -37 269 -209 300 -231
13 -10 83 -61 156 -115 180 -132 477 -338 645 -446 78 -51 441 -278 488 -306
174 -103 427 -247 620 -352 270 -147 706 -359 1025 -500 99 -43 189 -83 200
-88 65 -30 312 -128 595 -237 181 -70 772 -273 840 -288 8 -2 98 -29 200 -59
102 -31 194 -58 205 -61 26 -6 187 -49 278 -74 59 -17 445 -110 522 -126 242
-51 577 -117 665 -130 19 -3 42 -8 50 -10 8 -2 33 -7 55 -10 49 -7 291 -44
325 -50 23 -3 144 -20 215 -30 68 -9 244 -30 345 -40 25 -3 61 -7 80 -10 32
-4 126 -13 210 -20 19 -2 82 -6 140 -10 58 -4 112 -8 120 -10 8 -2 83 -6 165
-10 83 -4 161 -9 175 -10 42 -5 564 -18 730 -18 156 0 652 12 745 18 28 2 100
6 160 10 61 3 139 8 175 11 36 2 92 7 125 9 96 7 193 16 285 25 47 5 112 12
145 15 33 3 76 8 95 10 19 3 55 7 80 10 25 3 65 7 90 10 25 3 59 7 75 10 17 3
48 7 70 10 22 3 67 10 100 15 33 5 80 12 105 15 25 3 70 10 100 15 30 5 71 11
90 14 61 10 159 27 405 71 39 7 138 28 295 61 69 14 136 28 150 30 14 3 39 9
55 14 17 5 46 12 65 15 47 8 489 119 615 155 119 34 337 97 455 133 363 109
1073 367 1395 507 11 5 40 18 65 28 378 164 879 403 1123 535 37 20 95 52 130
71 180 97 174 94 342 191 541 311 1056 652 1550 1024 95 72 317 244 342 266 6
5 51 42 99 80 87 70 329 273 394 331 256 228 229 203 366 329 199 182 747 737
909 919 6 6 46 52 90 101 45 50 110 124 145 165 35 41 66 77 70 80 13 10 329
399 446 549 271 348 571 773 788 1116 49 77 99 156 111 175 48 73 125 202 125
207 0 2 15 28 34 56 18 29 45 72 59 97 157 276 190 336 290 521 58 108 272
537 322 644 20 44 47 103 60 130 113 244 345 795 345 819 0 7 4 16 9 22 4 5
32 74 60 154 29 80 59 159 67 177 8 17 14 37 14 45 0 8 3 18 7 22 4 3 8 12 10
19 1 7 39 120 84 252 45 132 88 260 95 285 7 25 22 74 33 110 73 245 185 653
206 749 2 9 20 84 40 166 38 157 77 336 99 450 2 11 7 31 10 45 3 14 8 36 10
50 3 14 12 59 20 100 8 41 17 95 21 120 4 24 8 47 10 50 2 3 6 30 10 60 4 30
8 57 10 60 2 3 6 30 10 60 4 30 8 57 10 60 2 3 6 28 9 55 4 27 8 57 11 65 2 8
7 38 10 65 4 28 8 59 10 70 3 22 34 249 41 305 2 19 6 49 8 65 3 17 8 57 11
90 3 33 7 76 10 95 2 19 7 64 10 100 3 36 8 81 10 100 5 45 13 136 20 230 4
41 8 95 10 120 2 25 7 97 10 160 3 63 8 150 11 194 14 250 20 884 10 1161 -8
209 -17 413 -21 475 -2 30 -7 98 -10 150 -3 52 -8 115 -10 140 -2 25 -6 79 -9
120 -4 41 -8 91 -11 110 -2 19 -7 62 -10 95 -3 33 -10 96 -15 140 -5 44 -12
107 -15 140 -3 33 -8 71 -10 85 -2 14 -7 45 -10 70 -5 42 -12 91 -20 150 -2
14 -7 45 -10 70 -3 25 -8 56 -10 70 -2 14 -9 57 -15 95 -29 189 -43 266 -96
540 -19 99 -36 189 -38 200 -10 58 -140 621 -161 690 -18 65 -114 414 -120
439 -2 10 -9 33 -14 50 -5 17 -28 92 -51 166 -60 195 -130 412 -140 435 -4 11
-31 85 -59 165 -27 80 -62 177 -76 215 -15 39 -35 93 -44 120 -53 145 -257
641 -326 790 -13 28 -60 131 -106 230 -78 168 -272 558 -351 705 -19 36 -56
106 -83 155 -27 50 -59 107 -72 127 -12 21 -23 40 -23 42 0 6 -207 359 -262
448 -18 30 -38 63 -45 74 -98 164 -460 707 -474 712 -5 2 -9 8 -9 13 0 7 -172
253 -217 309 -7 8 -58 76 -114 150 -89 117 -290 373 -348 442 -169 203 -308
367 -325 384 -12 11 -43 47 -71 79 -27 32 -55 63 -60 69 -6 6 -62 67 -125 136
-144 156 -151 163 -330 345 -230 235 -405 403 -699 671 -221 202 -763 651
-942 780 -39 28 -87 65 -118 90 -14 11 -66 49 -116 84 -49 35 -92 67 -95 70
-9 10 -288 202 -475 327 -377 252 -786 496 -1225 733 -109 58 -659 333 -741
369 -30 13 -96 44 -147 68 -51 23 -95 43 -97 43 -2 0 -28 11 -57 24 -202 93
-626 263 -903 362 -38 14 -79 29 -90 34 -26 12 -464 157 -615 203 -273 85
-837 239 -950 260 -14 3 -56 13 -95 22 -97 23 -85 20 -241 54 -77 16 -154 32
-170 35 -16 3 -40 8 -54 11 -119 23 -179 35 -200 39 -14 2 -52 9 -85 15 -33 6
-76 13 -95 16 -19 3 -42 8 -50 10 -8 2 -40 7 -70 10 -30 4 -58 8 -61 10 -3 2
-27 6 -55 10 -27 3 -56 7 -64 10 -8 2 -37 6 -65 10 -27 3 -95 12 -150 20 -55
8 -122 17 -150 20 -27 3 -61 8 -75 10 -14 2 -52 7 -85 10 -33 3 -73 8 -90 10
-31 4 -111 12 -205 20 -52 5 -85 8 -210 20 -72 6 -232 17 -445 30 -215 12
-414 17 -763 19 -205 1 -374 1 -375 0z m723 -2088 c124 -4 254 -9 290 -11 36
-2 112 -6 170 -10 58 -3 123 -8 145 -10 22 -2 76 -6 120 -10 149 -12 226 -19
395 -39 25 -3 68 -8 95 -11 28 -3 111 -15 185 -25 74 -11 153 -22 175 -24 22
-3 50 -8 61 -10 12 -2 39 -7 60 -10 111 -18 180 -30 294 -51 69 -13 139 -26
155 -29 39 -7 50 -10 175 -36 58 -12 112 -23 120 -25 8 -2 53 -12 100 -23 47
-12 132 -32 190 -46 381 -91 992 -276 1340 -406 47 -17 108 -40 135 -50 69
-24 487 -192 560 -225 33 -15 76 -33 95 -42 47 -20 76 -33 204 -92 59 -28 110
-51 112 -51 6 0 456 -225 532 -266 69 -38 130 -71 217 -119 28 -15 75 -41 105
-58 215 -117 654 -393 939 -589 244 -168 230 -158 471 -337 116 -87 495 -388
553 -440 18 -16 68 -59 112 -96 44 -37 100 -86 125 -109 25 -22 70 -63 100
-90 220 -199 559 -529 744 -727 44 -46 105 -111 136 -144 81 -86 328 -369 445
-510 178 -214 382 -480 601 -785 225 -312 587 -889 775 -1235 23 -44 62 -116
86 -160 38 -70 281 -559 333 -670 100 -213 238 -546 373 -900 96 -250 291
-853 342 -1055 2 -8 20 -76 40 -150 42 -157 35 -132 73 -290 17 -69 40 -170
52 -225 11 -55 27 -127 35 -160 12 -53 23 -109 30 -155 2 -8 13 -64 24 -125
12 -60 26 -137 31 -170 5 -33 12 -70 14 -81 9 -45 34 -210 41 -269 3 -27 8
-59 10 -70 2 -11 7 -42 10 -70 3 -27 8 -66 11 -85 3 -19 7 -53 9 -75 6 -59 15
-135 20 -175 3 -19 7 -64 10 -100 3 -36 7 -81 10 -100 4 -34 14 -155 20 -257
2 -29 6 -85 9 -125 27 -377 28 -1273 1 -1613 -1 -22 -6 -83 -9 -135 -4 -52 -9
-115 -11 -139 -8 -99 -16 -178 -20 -216 -2 -22 -7 -67 -10 -100 -6 -66 -14
-137 -20 -175 -2 -14 -7 -52 -10 -85 -4 -33 -8 -67 -10 -75 -3 -8 -7 -40 -10
-70 -3 -30 -10 -80 -15 -110 -5 -30 -11 -73 -15 -95 -3 -22 -7 -51 -10 -65 -3
-14 -7 -38 -9 -55 -5 -33 -43 -256 -51 -295 -3 -14 -8 -38 -11 -55 -3 -16 -7
-37 -9 -45 -2 -8 -4 -26 -4 -39 -1 -39 -16 -15 -49 79 -158 450 -359 887 -620
1350 -36 63 -80 139 -98 168 -19 29 -34 54 -34 57 0 9 -164 260 -288 440 -171
247 -515 682 -652 825 -8 9 -62 68 -120 130 -277 301 -606 608 -925 865 -55
44 -102 83 -105 86 -10 11 -248 188 -365 271 -240 170 -588 388 -835 522 -100
55 -493 252 -565 283 -134 59 -291 124 -390 163 -60 23 -123 48 -140 55 -63
28 -457 156 -610 199 -180 50 -434 112 -535 131 -14 3 -47 9 -75 15 -27 6 -61
12 -75 15 -47 9 -195 35 -235 40 -22 3 -51 8 -65 10 -14 3 -47 7 -75 11 -27 3
-61 7 -75 9 -58 9 -211 26 -285 31 -44 3 -93 7 -110 9 -46 7 -394 19 -545 19
-139 0 -429 -10 -535 -18 -117 -10 -226 -20 -315 -31 -25 -3 -64 -8 -88 -10
-23 -2 -68 -9 -100 -14 -31 -6 -79 -13 -107 -16 -27 -4 -66 -10 -85 -15 -19
-5 -55 -12 -80 -15 -25 -3 -52 -8 -60 -10 -8 -2 -31 -7 -50 -10 -19 -3 -84
-17 -145 -31 -60 -14 -121 -27 -135 -30 -65 -13 -373 -99 -487 -135 -71 -23
-139 -45 -153 -49 -176 -56 -504 -186 -760 -302 -228 -103 -523 -260 -775
-411 -252 -151 -706 -462 -860 -590 -11 -9 -60 -48 -110 -87 -249 -198 -437
-365 -709 -632 -222 -216 -360 -346 -496 -464 -25 -21 -50 -43 -56 -49 -6 -5
-28 -23 -48 -40 -21 -16 -50 -40 -65 -53 -14 -12 -51 -42 -81 -65 -30 -23 -57
-45 -60 -48 -11 -13 -243 -181 -360 -261 -130 -88 -316 -204 -410 -256 -30
-16 -91 -49 -135 -74 -275 -151 -676 -321 -990 -418 -173 -55 -479 -130 -585
-146 -19 -3 -41 -7 -49 -10 -8 -2 -37 -7 -65 -10 -28 -3 -54 -8 -57 -10 -4 -2
-27 -6 -50 -9 -24 -3 -60 -7 -79 -10 -19 -2 -60 -7 -90 -10 -30 -4 -68 -8 -85
-10 -206 -26 -808 -26 -1010 0 -16 2 -57 7 -90 10 -87 9 -127 14 -155 20 -14
2 -47 7 -75 11 -27 3 -59 8 -70 10 -11 3 -36 7 -55 10 -19 3 -78 15 -130 26
-52 11 -113 24 -135 28 -22 5 -85 21 -140 35 -55 14 -107 28 -115 30 -8 1 -42
11 -75 21 -33 10 -62 18 -65 19 -30 5 -305 103 -450 160 -480 189 -905 418
-1351 731 -114 79 -409 309 -489 380 -19 17 -78 69 -130 115 -226 199 -632
628 -776 820 -10 15 -55 73 -99 130 -255 331 -509 745 -690 1124 -68 143 -83
176 -86 193 0 4 -4 12 -9 17 -21 27 -148 357 -210 545 -62 190 -150 523 -174
660 -3 19 -8 46 -11 60 -8 42 -44 263 -49 300 -2 19 -7 62 -10 95 -4 33 -9 80
-11 105 -14 132 -20 281 -20 515 1 350 14 511 71 870 2 17 9 53 14 80 6 28 12
61 15 75 26 139 65 295 116 465 197 654 523 1286 965 1872 167 221 237 305
464 558 64 72 469 476 570 569 172 158 358 322 500 441 52 44 97 82 100 85 3
3 37 30 75 60 39 30 72 57 75 60 3 3 37 30 75 60 39 30 72 57 75 60 5 5 76 59
275 206 292 216 704 490 970 647 11 7 31 19 45 28 34 22 339 197 420 241 164
90 216 117 385 202 190 96 337 166 525 251 63 29 135 61 160 73 76 34 493 204
525 213 17 5 39 13 50 18 28 14 294 111 302 111 4 0 37 11 73 24 167 62 695
223 925 281 17 5 35 9 40 11 212 56 655 155 805 180 14 2 45 9 70 14 25 5 59
12 75 15 135 23 397 65 425 69 196 27 300 40 400 51 30 4 66 8 80 11 14 2 59
6 100 9 41 4 85 8 97 10 12 2 61 6 110 10 48 4 104 8 123 10 31 4 119 9 310
20 36 2 160 7 275 11 116 3 211 7 212 8 3 3 374 -3 583 -8z m-13069 -10666
c63 -172 149 -382 211 -520 84 -185 271 -552 356 -695 19 -33 44 -76 55 -95
10 -19 42 -71 69 -115 27 -44 55 -89 61 -100 24 -41 270 -410 276 -415 4 -3
15 -18 25 -35 11 -16 23 -34 28 -40 5 -5 43 -57 85 -115 43 -58 80 -107 83
-110 3 -3 30 -36 60 -75 67 -85 66 -84 176 -215 272 -324 603 -663 929 -950
33 -29 75 -66 94 -83 148 -131 735 -577 760 -577 5 0 11 -4 13 -8 3 -9 234
-162 310 -207 10 -5 64 -38 120 -72 285 -171 681 -375 971 -499 149 -64 174
-74 367 -149 227 -88 647 -220 890 -280 117 -28 453 -100 515 -109 22 -4 94
-15 160 -26 141 -23 170 -27 250 -35 33 -4 71 -8 84 -10 14 -3 54 -7 90 -10
36 -3 86 -8 111 -10 377 -35 837 -35 1240 0 25 2 77 6 115 10 39 3 79 7 90 9
11 2 47 7 80 11 104 12 185 23 225 31 14 2 41 6 60 9 19 2 105 18 190 35 85
17 168 34 184 36 108 20 481 120 656 176 208 67 533 187 648 239 35 16 65 29
68 29 22 0 521 244 652 318 41 23 75 42 77 42 23 0 577 350 758 479 69 49 240
175 264 195 10 8 65 52 123 97 89 70 151 121 305 251 54 45 77 65 160 141 124
113 206 191 355 337 231 227 396 379 510 470 24 19 48 40 54 46 13 12 200 160
242 191 16 12 49 37 74 55 262 198 601 405 930 569 295 147 533 242 885 352
184 58 508 129 735 162 63 9 126 18 140 20 29 4 106 12 200 20 277 24 730 19
970 -10 19 -3 60 -7 90 -10 30 -3 66 -8 80 -11 14 -2 43 -7 65 -9 89 -12 365
-64 475 -91 119 -28 161 -39 250 -65 596 -173 1173 -436 1684 -771 49 -32 92
-58 97 -58 4 0 9 -4 11 -8 2 -5 32 -28 68 -52 116 -78 451 -334 516 -395 6 -5
26 -23 45 -39 178 -153 470 -439 619 -605 41 -46 80 -89 85 -95 8 -9 126 -152
224 -271 78 -96 395 -550 412 -591 2 -5 36 -63 75 -129 104 -174 135 -232 223
-411 210 -425 349 -806 455 -1239 51 -209 63 -263 70 -315 3 -19 8 -46 11 -60
19 -103 53 -359 60 -455 16 -208 19 -286 19 -455 0 -180 -10 -446 -19 -502 -2
-12 -6 -50 -10 -83 -20 -182 -23 -201 -56 -380 -49 -265 -164 -695 -219 -820
-5 -11 -26 -65 -46 -120 -234 -637 -661 -1328 -1193 -1930 -229 -259 -620
-646 -895 -886 -22 -19 -47 -41 -56 -49 -8 -8 -45 -40 -80 -70 -36 -30 -78
-67 -95 -82 -16 -15 -109 -90 -205 -168 -96 -78 -184 -149 -195 -158 -94 -78
-484 -364 -697 -510 -247 -171 -724 -465 -970 -600 -32 -18 -82 -45 -110 -61
-29 -16 -80 -43 -113 -61 -83 -45 -535 -271 -617 -309 -38 -17 -98 -45 -135
-62 -38 -17 -83 -37 -100 -45 -18 -8 -48 -21 -66 -29 -113 -49 -220 -94 -347
-144 -80 -32 -154 -62 -165 -66 -11 -4 -24 -9 -30 -11 -5 -1 -35 -12 -65 -24
-548 -214 -1372 -452 -1985 -574 -44 -9 -91 -19 -105 -21 -46 -10 -404 -73
-445 -79 -23 -4 -50 -8 -60 -10 -11 -2 -45 -7 -75 -12 -30 -4 -57 -8 -60 -9
-3 -1 -34 -5 -70 -9 -36 -5 -73 -10 -82 -11 -9 -2 -45 -6 -80 -10 -35 -3 -70
-8 -78 -10 -8 -2 -44 -7 -80 -10 -36 -4 -76 -8 -90 -10 -14 -2 -59 -6 -100
-10 -41 -3 -91 -8 -110 -10 -61 -7 -152 -15 -245 -20 -49 -3 -112 -8 -140 -10
-330 -26 -1434 -26 -1595 -1 -14 3 -77 7 -141 11 -64 3 -127 8 -140 10 -13 2
-62 6 -109 10 -47 3 -98 8 -115 10 -16 2 -57 7 -90 10 -57 5 -112 11 -180 20
-129 16 -285 37 -310 41 -16 2 -43 6 -60 8 -35 5 -389 64 -425 71 -14 3 -70
14 -125 25 -55 11 -116 22 -135 25 -19 3 -42 8 -50 10 -14 4 -172 39 -230 51
-14 3 -77 18 -140 34 -63 16 -126 31 -140 34 -196 39 -1014 288 -1235 376 -16
6 -37 13 -45 15 -70 17 -650 254 -930 380 -211 96 -711 346 -880 442 -58 32
-112 62 -120 66 -8 4 -22 11 -30 17 -32 21 -151 90 -154 90 -3 0 -210 124
-266 160 -8 5 -35 21 -60 36 -76 46 -438 287 -570 379 -212 149 -654 483 -726
550 -6 5 -26 22 -45 37 -19 14 -44 35 -55 45 -12 10 -43 36 -70 58 -343 284
-804 721 -1144 1085 -69 74 -137 146 -151 161 -14 15 -38 42 -54 61 -32 38
-135 156 -151 172 -5 6 -61 72 -123 146 -62 74 -121 145 -131 156 -118 141
-418 541 -572 764 -59 85 -111 160 -115 165 -46 58 -322 498 -443 705 -100
171 -109 188 -140 245 -15 28 -36 66 -47 85 -57 100 -343 662 -343 674 0 2
-24 55 -54 118 -61 130 -122 269 -195 448 -29 69 -56 134 -61 145 -12 27 -100
254 -110 285 -5 14 -20 57 -35 95 -15 39 -28 77 -30 85 -3 8 -27 80 -55 160
-48 136 -165 504 -195 615 -8 28 -26 93 -40 145 -35 128 -134 518 -141 555 -3
17 -14 71 -25 120 -11 50 -29 135 -41 190 -11 55 -22 109 -24 120 -8 42 -26
141 -31 170 -2 17 -10 62 -18 100 -7 39 -16 92 -20 119 -3 27 -8 52 -9 55 -2
3 -7 33 -10 66 -4 33 -9 71 -11 85 -9 50 -20 132 -40 293 -3 20 -7 54 -10 75
-2 20 -7 62 -10 92 -3 30 -7 76 -10 103 -3 26 -7 71 -10 100 -3 28 -7 72 -10
97 -6 62 -16 206 -32 465 -16 263 -8 1247 12 1515 1 19 5 78 9 130 4 52 9 115
12 140 2 25 7 70 9 100 6 74 16 169 20 200 2 14 6 54 10 90 4 36 8 76 10 90 2
14 6 43 9 65 16 124 37 273 40 292 3 11 8 43 12 70 3 26 8 57 10 68 13 72 27
151 40 230 3 22 7 45 8 50 1 6 11 55 21 110 13 71 20 94 26 80 4 -11 40 -108
80 -215z"/>
<path d="M16217 29694 c-1 -1 -54 -5 -117 -8 -63 -4 -122 -9 -130 -11 -8 -2
-37 -6 -65 -10 -42 -5 -109 -16 -244 -41 -13 -3 -51 -12 -85 -20 -34 -8 -68
-16 -76 -18 -241 -58 -604 -207 -839 -346 -69 -40 -214 -132 -221 -140 -3 -3
-31 -23 -63 -45 -141 -95 -378 -308 -531 -476 -289 -317 -527 -716 -676 -1131
-28 -77 -97 -308 -106 -353 -2 -11 -10 -51 -18 -90 -18 -83 -33 -171 -41 -240
-4 -27 -8 -61 -11 -75 -23 -139 -23 -640 0 -755 2 -11 7 -49 11 -85 4 -36 8
-67 10 -70 2 -3 6 -26 9 -50 3 -25 12 -76 21 -115 9 -38 18 -77 20 -85 29
-143 124 -426 197 -590 73 -163 176 -351 272 -495 461 -695 1151 -1192 1949
-1405 64 -17 127 -33 140 -36 64 -14 238 -44 282 -49 28 -3 59 -8 70 -10 120
-24 583 -24 777 1 70 9 287 44 300 49 7 2 24 6 38 9 64 11 334 86 375 105 11
5 61 24 110 42 50 18 141 57 204 86 62 29 115 53 116 53 8 0 222 124 236 136
8 8 19 14 23 14 4 0 42 23 84 52 225 151 439 335 618 532 91 99 110 121 174
206 36 47 67 87 70 90 22 22 165 245 218 341 45 81 115 224 147 299 15 36 33
79 40 95 13 30 93 256 101 285 14 52 65 259 69 280 3 14 7 35 9 46 2 12 7 39
10 60 4 22 8 46 11 54 2 8 6 40 10 71 3 31 8 66 10 78 24 124 24 600 0 761 -2
14 -6 48 -10 75 -5 43 -14 98 -32 195 -50 273 -158 589 -295 865 -299 600
-773 1099 -1368 1438 -56 32 -289 147 -297 147 -4 0 -20 6 -34 14 -71 37 -349
133 -468 162 -177 42 -299 66 -406 79 -27 4 -61 8 -75 10 -91 13 -512 29 -523
19z m280 -2089 c308 -32 581 -166 803 -395 69 -72 77 -82 140 -174 214 -314
276 -701 172 -1086 -100 -371 -414 -716 -777 -853 -90 -34 -208 -66 -265 -73
-25 -3 -56 -7 -70 -10 -61 -11 -258 -5 -355 11 -381 63 -720 300 -915 638 -48
84 -115 239 -123 287 -3 14 -10 43 -15 65 -23 86 -34 176 -34 285 0 139 9 212
43 343 87 343 328 647 650 819 122 65 287 120 404 134 22 3 65 8 95 12 64 8
152 7 247 -3z"/>
<path d="M26098 19745 c-2 -1 -43 -6 -92 -10 -50 -4 -97 -8 -105 -10 -9 -1
-38 -6 -66 -9 -27 -4 -61 -8 -75 -11 -14 -3 -40 -7 -58 -10 -198 -32 -531
-131 -707 -210 -223 -99 -291 -134 -455 -233 -61 -37 -241 -159 -285 -194 -23
-18 -103 -83 -150 -121 -95 -78 -340 -332 -436 -452 -214 -267 -387 -563 -510
-872 -44 -111 -117 -334 -135 -415 -2 -10 -6 -26 -8 -35 -64 -263 -91 -493
-91 -798 0 -351 31 -584 121 -911 286 -1040 1057 -1880 2082 -2266 59 -22 121
-44 137 -48 17 -5 68 -20 115 -34 47 -13 96 -27 110 -30 14 -3 52 -12 85 -19
33 -8 83 -18 110 -23 28 -4 52 -8 55 -9 36 -9 195 -29 330 -41 55 -5 409 -4
465 1 28 2 84 7 125 10 41 3 82 8 90 10 17 4 74 13 135 21 22 3 68 11 101 19
34 8 73 16 85 19 104 20 470 137 497 158 6 6 12 8 12 5 0 -14 330 148 447 219
141 85 294 189 340 229 6 5 26 21 45 35 112 84 331 294 449 430 45 52 135 164
197 245 94 123 268 428 352 619 147 331 244 726 275 1121 5 63 6 415 1 475 -7
88 -17 185 -21 200 -2 8 -7 40 -10 70 -3 30 -8 62 -11 71 -3 10 -6 30 -9 45
-3 25 -8 49 -31 149 -3 11 -7 29 -9 40 -16 72 -72 254 -116 372 -67 182 -238
532 -285 584 -8 8 -14 19 -14 23 0 4 -10 22 -22 39 -13 17 -27 39 -33 48 -54
88 -195 269 -295 380 -124 136 -205 214 -395 378 -16 14 -84 64 -150 112 -337
241 -693 411 -1086 518 -64 17 -126 33 -138 36 -12 2 -30 6 -39 9 -9 3 -33 7
-52 10 -19 3 -69 12 -110 19 -41 8 -82 14 -90 15 -16 0 -92 9 -150 18 -36 6
-516 14 -522 9z m373 -2090 c30 -4 63 -9 74 -11 11 -2 31 -6 45 -9 68 -12 204
-60 285 -99 382 -187 662 -569 722 -986 13 -90 9 -339 -6 -410 -49 -232 -105
-362 -230 -540 -111 -158 -309 -325 -482 -408 -59 -28 -193 -79 -229 -87 -8
-2 -36 -8 -62 -14 -116 -27 -344 -35 -468 -18 -368 52 -705 271 -912 592 -50
77 -118 214 -118 237 0 7 -4 18 -9 24 -7 8 -36 105 -47 157 -2 12 -6 33 -9 47
-27 135 -25 336 4 489 130 664 774 1126 1442 1036z"/>
</g>
</svg>
